<?xml version="1.0" encoding="utf-8"?>
<!-- Generator: Adobe Illustrator 21.1.0, SVG Export Plug-In . SVG Version: 6.00 Build 0)  -->
<svg version="1.1" id="Layer_1" xmlns="http://www.w3.org/2000/svg" xmlns:xlink="http://www.w3.org/1999/xlink" x="0px" y="0px"
	 viewBox="0 0 509.3 509.3" style="enable-background:new 0 0 509.3 509.3;" xml:space="preserve">
<style type="text/css">
	.st0{fill:#B7B7B7;}
	.st1{fill:#FFFFFF;}
	.st2{fill:#EF6F7F;}
	.st3{fill:#B4D3A5;}
	.st4{fill:#75A9D3;}
	.st5{fill:#7C7C7C;}
</style>
<path class="st0" d="M490.3,79.4H19c-4.8,0-8.9,4-8.9,8.9V421c0,4.8,4,8.9,8.9,8.9h471.3c4.8,0,8.9-4,8.9-8.9V88.3
	C499.2,83.4,495.1,79.4,490.3,79.4z"/>
<rect x="34.7" y="143.1" class="st1" width="439.9" height="263.1"/>
<circle class="st2" cx="46.4" cy="115.3" r="11.7"/>
<circle class="st3" cx="83" cy="115.3" r="11.7"/>
<circle class="st4" cx="119.7" cy="115.3" r="11.7"/>
<path class="st1" d="M462.9,103.6H162.4c-6.4,0-11.7,5.2-11.7,11.7c0,6.4,5.2,11.7,11.7,11.7h300.5c6.4,0,11.7-5.2,11.7-11.7
	C474.6,108.8,469.4,103.6,462.9,103.6z"/>
<polygon class="st5" points="86.9,363.9 76.4,354.7 194,227.4 322.7,309.5 422.4,185.2 433.4,194 325.8,327.9 196.2,245.4 "/>
<circle class="st2" cx="81.6" cy="359.6" r="29"/>
<circle class="st2" cx="194.9" cy="236.6" r="29"/>
<circle class="st2" cx="324" cy="318.7" r="29"/>
<circle class="st2" cx="427.7" cy="189.6" r="29"/>
</svg>
