<?xml version="1.0" encoding="utf-8"?>
<!-- Generator: Adobe Illustrator 21.1.0, SVG Export Plug-In . SVG Version: 6.00 Build 0)  -->
<svg version="1.1" id="Layer_1" xmlns="http://www.w3.org/2000/svg" xmlns:xlink="http://www.w3.org/1999/xlink" x="0px" y="0px"
	 viewBox="0 0 501.6 501.6" style="enable-background:new 0 0 501.6 501.6;" xml:space="preserve">
<style type="text/css">
	.st0{fill:#B8B8B8;}
	.st1{fill:#F2F2F2;}
	.st2{fill:#CDD6E0;}
	.st3{fill:#ACB3BA;}
	.st4{fill:#FFFFFF;}
	.st5{fill:#666666;}
	.st6{fill:#EF707F;}
</style>
<path class="st0" d="M484.8,41.8H20.9C9.4,41.8,0,51.2,0,62.7v321.8h501.6v-326C501.6,49.1,494.2,41.8,484.8,41.8z"/>
<path class="st1" d="M0,384.5v39.7c0,11.5,9.4,20.9,20.9,20.9h459.8c11.5,0,20.9-9.4,20.9-20.9v-39.7H0z"/>
<g>
	<circle class="st2" cx="250.8" cy="414.8" r="11.5"/>
	<rect x="154.6" y="445.1" class="st2" width="192.3" height="39.7"/>
</g>
<rect x="113.9" y="484.8" class="st1" width="272.7" height="16.7"/>
<rect x="154.6" y="445.1" class="st3" width="192.3" height="15.7"/>
<rect x="33.4" y="72.1" class="st4" width="434.7" height="282.1"/>
<g>
	<polygon class="st5" points="330.2,72.1 330.2,41.8 330.2,41.8 345.9,41.8 345.9,72.1 345.9,72.1 	"/>
	<polygon class="st5" points="155.7,72.1 155.7,41.8 155.7,41.8 171.4,41.8 171.4,72.1 171.4,72.1 	"/>
</g>
<path class="st0" d="M317.6,0H183.9c-7.3,0-12.5,5.2-12.5,12.5v238.2c0,7.3,5.2,12.5,12.5,12.5h133.7c7.3,0,12.5-5.2,12.5-12.5V12.5
	C330.2,5.2,325,0,317.6,0z"/>
<rect x="185.1" y="25.2" class="st4" width="131.7" height="201.7"/>
<g>
	<circle class="st4" cx="250.8" cy="244.5" r="10.4"/>
	<path class="st4" d="M268.5,9.4H233c-2.1,0-3.1,1-3.1,3.1l0,0c0,2.1,1,3.1,3.1,3.1h35.5c2.1,0,3.1-1,3.1-3.1l0,0
		C271.7,10.4,270.6,9.4,268.5,9.4z"/>
</g>
<g>
	<rect x="195.4" y="40.8" class="st6" width="52.2" height="52.2"/>
	<rect x="253.9" y="40.8" class="st6" width="52.2" height="52.2"/>
</g>
<rect x="195.4" y="99.3" class="st6" width="110.8" height="43.9"/>
<g>
	<rect x="195.4" y="153.6" class="st6" width="110.8" height="24"/>
	<rect x="195.4" y="191.2" class="st6" width="110.8" height="24"/>
</g>
</svg>
